<svg width="723" height="462" viewBox="0 0 723 462" fill="none" xmlns="http://www.w3.org/2000/svg">
<g filter="url(#filter0_ii_2_9)">
<path d="M358.14 13.6438L405.5 39C410.5 40.5 413 42 420.179 39.6139C431.778 35.7586 494.732 44.0512 528.121 50.9259C572.871 50.9259 622.218 99.5779 641.297 123.904C653.439 118.192 696.713 212.546 715.215 256.703C730.825 271.616 716.805 278.781 707.843 280.5C713.393 283.038 711.502 364.626 709.189 394.769C703.908 426.024 698.574 412.327 695.545 390.895C697.056 417.446 676.653 420.034 669.451 435.432C648.3 464.651 638.808 435.3 643 427.5C644.695 422.463 648.192 402.615 649.319 383.538C647.727 384.453 643.403 384.175 636 388C631.539 386.88 627.5 422.276 622 423.5C610.551 426.047 605.957 397.633 604.073 380.019C600.562 390.816 579.694 409.658 568.483 417.537C516.795 434.671 511.714 422.761 524 406.5C537.876 399.52 542.978 365.951 526.5 348.5C521.137 347.911 517.393 344.866 516.17 344.597C516.437 345.856 516.715 347.165 517 348.5C516.911 348.294 516.826 348.098 516.747 347.91C517.501 351.631 518.412 356.127 519.5 361.5C528.173 404.335 487.97 443.2 466 451C422.5 479.5 427.696 439.366 436.947 430.772C436.947 414 420.801 388 420.801 382.396C415.5 376 407.611 376.064 392 366.81C386.103 369.031 389.543 421.915 392 430.772C408.12 472.876 369.313 451.584 351.62 444.376C338.12 438.876 300.201 375.889 283 350.77C286.122 366.952 275.5 396 268.5 404.313C233.463 432.87 238 404.313 235.111 391.225C227 379.5 214.465 362.007 211.574 357.512C206.495 345.316 210.715 350.538 204.5 347.233C178.136 351.358 174.078 415.595 173.5 434.5C160.318 443.702 106.781 378.269 87.5571 366.634C92.0668 377.105 85.8226 426.303 87.5571 434.5C68.4775 450.365 50.4306 415.683 38 391.225C31.7558 400.426 13 416.725 3.50004 408.225L5.00004 381.5L3.24801 324.5C-3.69001 314.347 8.47209 246.327 17.0001 214.333C26.0195 178.479 53.5897 170.573 59.3714 171.101C26.7627 161.583 56.7696 143.867 75.8492 136.199C96.3163 100.027 151.734 70.3603 176.884 60.0482L163.442 50.9259C141.587 36.6477 163.297 32.2849 176.884 31.8882C280.087 8.48773 322.582 25.939 321.715 21.5762C321.021 18.0859 330.387 8.22331 335.157 3.7283C349.727 -4.20408 356.55 7.03345 358.14 13.6438Z" fill="#1D1D1D"/>
</g>
<path d="M405.5 39L405.264 39.4408L405.308 39.4645L405.356 39.4789L405.5 39ZM358.14 13.6438L357.653 13.7607L357.706 13.9787L357.904 14.0846L358.14 13.6438ZM335.157 3.7283L334.918 3.28916L334.861 3.32008L334.814 3.36442L335.157 3.7283ZM321.715 21.5762L321.225 21.6736L321.225 21.6736L321.715 21.5762ZM176.884 31.8882L176.899 32.388L176.947 32.3866L176.995 32.3759L176.884 31.8882ZM163.442 50.9259L163.722 50.5121L163.715 50.5074L163.442 50.9259ZM176.884 60.0482L177.074 60.5108L177.935 60.1575L177.165 59.6344L176.884 60.0482ZM75.8492 136.199L76.0356 136.663L76.1981 136.598L76.2843 136.445L75.8492 136.199ZM59.3714 171.101L59.3258 171.599L59.5115 170.621L59.3714 171.101ZM17.0001 214.333L17.4832 214.462L17.485 214.455L17.0001 214.333ZM3.24801 324.5L3.74777 324.485L3.74328 324.339L3.66083 324.218L3.24801 324.5ZM5.00004 381.5L5.49926 381.528C5.50007 381.514 5.50025 381.499 5.49981 381.485L5.00004 381.5ZM3.50004 408.225L3.00083 408.197L2.98735 408.437L3.16665 408.598L3.50004 408.225ZM38 391.225L38.4457 390.998L38.0619 390.243L37.5863 390.944L38 391.225ZM87.5571 434.5L87.8768 434.884L88.1087 434.692L88.0463 434.396L87.5571 434.5ZM87.5571 366.634L87.816 366.207L86.4803 365.398L87.0979 366.832L87.5571 366.634ZM173.5 434.5L173.786 434.91L173.992 434.766L174 434.515L173.5 434.5ZM204.5 347.233L204.735 346.792L204.588 346.713L204.423 346.739L204.5 347.233ZM211.574 357.512L211.112 357.704L211.13 357.745L211.154 357.783L211.574 357.512ZM235.111 391.225L235.599 391.117L235.578 391.021L235.522 390.94L235.111 391.225ZM268.5 404.313L268.816 404.701L268.852 404.671L268.883 404.635L268.5 404.313ZM283 350.77L283.413 350.487L282.509 350.864L283 350.77ZM351.62 444.376L351.808 443.912L351.808 443.912L351.62 444.376ZM392 430.772L391.518 430.906L391.525 430.929L391.533 430.951L392 430.772ZM392 366.81L392.255 366.38L392.048 366.257L391.824 366.342L392 366.81ZM420.801 382.396H421.301V382.216L421.186 382.077L420.801 382.396ZM436.947 430.772L437.287 431.139L437.447 430.99V430.772H436.947ZM466 451L465.833 450.529L465.776 450.549L465.726 450.582L466 451ZM519.5 361.5L519.99 361.401L519.99 361.401L519.5 361.5ZM517 348.5L516.541 348.699L517.489 348.396L517 348.5ZM526.5 348.5L526.864 348.157L526.737 348.023L526.555 348.003L526.5 348.5ZM524 406.5L523.775 406.053L523.671 406.106L523.601 406.199L524 406.5ZM568.483 417.537L568.641 418.012L568.711 417.988L568.771 417.946L568.483 417.537ZM603.5 374.17L603.87 373.834L602.869 372.736L603.002 374.215L603.5 374.17ZM622 423.5L621.891 423.012L621.891 423.012L622 423.5ZM636 388L635.878 388.485L636.062 388.531L636.229 388.444L636 388ZM649.5 380L649.973 379.837L649 379.978L649.5 380ZM643 427.5L643.44 427.737L643.46 427.699L643.474 427.659L643 427.5ZM669.451 435.432L669.856 435.726L669.884 435.687L669.904 435.644L669.451 435.432ZM694.583 383.134L695.074 383.044L694.085 383.188L694.583 383.134ZM709.189 394.769L709.682 394.852L709.686 394.83L709.688 394.807L709.189 394.769ZM707.843 280.5L707.749 280.009L706.212 280.304L707.635 280.955L707.843 280.5ZM715.215 256.703L714.754 256.896L714.794 256.992L714.869 257.064L715.215 256.703ZM641.297 123.904L640.904 124.212L641.15 124.526L641.51 124.356L641.297 123.904ZM528.121 50.9259L528.02 51.4157L528.07 51.4259H528.121V50.9259ZM420.179 39.6139L420.021 39.1394L420.021 39.1394L420.179 39.6139ZM405.736 38.5592L358.376 13.203L357.904 14.0846L405.264 39.4408L405.736 38.5592ZM358.626 13.5268C357.814 10.1524 355.664 5.56304 351.805 2.82478C349.867 1.44895 347.501 0.544575 344.679 0.501601C341.861 0.458692 338.618 1.27486 334.918 3.28916L335.396 4.16743C338.982 2.21555 342.055 1.46177 344.664 1.50149C347.268 1.54114 349.439 2.37197 351.227 3.64027C354.819 6.19026 356.875 10.5249 357.653 13.7607L358.626 13.5268ZM334.814 3.36442C332.42 5.62128 328.87 9.22631 326.001 12.7113C324.568 14.4524 323.294 16.1773 322.419 17.6977C321.981 18.4577 321.636 19.1799 321.422 19.837C321.211 20.4871 321.114 21.1177 321.225 21.6736L322.205 21.4787C322.142 21.1621 322.186 20.7209 322.373 20.1461C322.558 19.5782 322.868 18.9221 323.285 18.1965C324.12 16.7455 325.355 15.0695 326.773 13.3468C329.607 9.9041 333.125 6.33033 335.5 4.09218L334.814 3.36442ZM321.225 21.6736C321.234 21.7187 321.22 21.6994 321.241 21.6635C321.258 21.6365 321.262 21.6562 321.177 21.6907C320.989 21.7672 320.615 21.819 319.979 21.8121C318.733 21.7985 316.774 21.5709 314.023 21.2408C308.547 20.5837 300.074 19.5404 288.345 19.0934C264.885 18.1994 228.417 19.6908 176.773 31.4006L176.995 32.3759C228.554 20.6852 264.935 19.202 288.307 20.0927C299.993 20.5381 308.432 21.5771 313.904 22.2337C316.628 22.5606 318.654 22.7977 319.968 22.812C320.612 22.819 321.164 22.7755 321.554 22.6169C321.758 22.534 321.963 22.4012 322.096 22.1828C322.234 21.9556 322.251 21.7063 322.205 21.4787L321.225 21.6736ZM176.869 31.3885C173.453 31.4882 169.521 31.8372 165.885 32.5312C162.261 33.2226 158.877 34.2663 156.595 35.7853C155.45 36.5473 154.55 37.4507 154.054 38.5224C153.552 39.6082 153.487 40.8218 153.938 42.1447C154.822 44.7394 157.694 47.7681 163.168 51.3445L163.715 50.5074C158.262 46.9446 155.652 44.0736 154.885 41.8222C154.51 40.722 154.577 39.7758 154.962 38.9421C155.354 38.0942 156.097 37.3182 157.149 36.6177C159.261 35.2116 162.486 34.1978 166.072 33.5135C169.645 32.8316 173.522 32.4866 176.899 32.388L176.869 31.3885ZM163.161 51.3397L176.603 60.4619L177.165 59.6344L163.722 50.5122L163.161 51.3397ZM176.694 59.5856C164.09 64.7534 143.918 74.7639 124.33 88.0121C104.753 101.254 85.7048 117.766 75.414 135.953L76.2843 136.445C86.4607 118.461 105.355 102.053 124.891 88.8404C144.416 75.6341 164.527 65.655 177.074 60.5108L176.694 59.5856ZM75.6627 135.735C70.8752 137.659 65.4003 140.214 60.3892 143.116C55.3857 146.014 50.8107 149.277 47.8525 152.625C44.9068 155.959 43.4477 159.525 45.0541 162.924C46.6283 166.255 51.0636 169.197 59.2313 171.581L59.5115 170.621C51.3749 168.246 47.3327 165.405 45.9582 162.497C44.6161 159.657 45.737 156.53 48.6019 153.287C51.4543 150.058 55.9203 146.86 60.8903 143.982C65.8526 141.108 71.2833 138.573 76.0356 136.663L75.6627 135.735ZM59.4169 170.604C57.8683 170.462 54.9824 170.882 51.4163 172.119C47.833 173.361 43.5182 175.443 39.1048 178.67C30.2714 185.128 21.0544 196.166 16.5152 214.211L17.485 214.455C21.9651 196.645 31.0429 185.803 39.695 179.477C44.0243 176.312 48.2498 174.275 51.7439 173.064C55.2551 171.846 57.9837 171.477 59.3258 171.599L59.4169 170.604ZM16.5169 214.204C12.2475 230.222 7.07126 255.244 3.82949 277.535C2.20869 288.679 1.06958 299.154 0.770867 307.484C0.621541 311.648 0.681689 315.29 1.0001 318.217C1.31611 321.123 1.89348 323.404 2.83518 324.782L3.66083 324.218C2.86803 323.058 2.30777 320.992 1.99424 318.109C1.68309 315.249 1.62176 311.66 1.77022 307.52C2.06708 299.241 3.20062 288.807 4.81908 277.679C8.05586 255.422 13.2247 230.438 17.4832 214.462L16.5169 214.204ZM2.74824 324.515L4.50028 381.515L5.49981 381.485L3.74777 324.485L2.74824 324.515ZM4.50083 381.472L3.00083 408.197L3.99926 408.253L5.49926 381.528L4.50083 381.472ZM3.16665 408.598C5.67925 410.846 8.79488 411.436 12.0942 410.943C15.3803 410.453 18.8772 408.887 22.236 406.787C28.9527 402.587 35.253 396.163 38.4137 391.506L37.5863 390.944C34.5027 395.488 28.3031 401.814 21.7059 405.939C18.4077 408.001 15.0441 409.492 11.9466 409.954C8.86218 410.414 6.07083 409.854 3.83344 407.852L3.16665 408.598ZM37.5543 391.451C43.7623 403.666 51.4089 418.511 59.9074 428.311C64.1553 433.209 68.6637 436.905 73.3659 438.349C78.1116 439.805 82.9898 438.948 87.8768 434.884L87.2374 434.116C82.5846 437.984 78.0521 438.741 73.6594 437.393C69.2232 436.031 64.8656 432.502 60.6629 427.656C52.2605 417.967 44.6683 403.242 38.4457 390.998L37.5543 391.451ZM88.0463 434.396C87.8413 433.428 87.7481 431.81 87.7441 429.659C87.74 427.521 87.8236 424.895 87.959 421.933C88.23 416.005 88.7062 408.774 89.0971 401.447C89.4874 394.129 89.7918 386.727 89.7157 380.497C89.6776 377.382 89.5444 374.551 89.2776 372.165C89.0119 369.789 88.61 367.815 88.0163 366.437L87.0979 366.832C87.6316 368.072 88.021 369.926 88.2838 372.276C88.5455 374.617 88.6779 377.411 88.7157 380.509C88.7914 386.705 88.4887 394.078 88.0985 401.393C87.7088 408.699 87.2311 415.959 86.96 421.888C86.8244 424.855 86.74 427.499 86.7441 429.661C86.7481 431.811 86.8392 433.523 87.0679 434.604L88.0463 434.396ZM87.2982 367.062C92.0477 369.937 98.9578 376.165 106.895 383.801C114.792 391.397 123.75 400.429 132.449 408.742C141.167 417.074 149.72 424.778 156.927 429.824C160.528 432.345 163.821 434.223 166.651 435.177C169.469 436.126 171.943 436.196 173.786 434.91L173.214 434.09C171.761 435.104 169.679 435.142 166.971 434.229C164.274 433.32 161.072 431.505 157.5 429.004C150.361 424.006 141.856 416.349 133.14 408.019C124.403 399.67 115.549 390.737 107.589 383.08C99.6696 375.463 92.6785 369.149 87.816 366.207L87.2982 367.062ZM174 434.515C174.289 425.073 175.446 404.326 179.817 385.436C182.003 375.989 184.986 367.039 189.045 360.205C193.106 353.367 198.197 348.725 204.577 347.727L204.423 346.739C197.621 347.803 192.318 352.737 188.185 359.695C184.05 366.656 181.039 375.72 178.843 385.211C174.45 404.197 173.29 425.022 173 434.485L174 434.515ZM204.265 347.674C205.852 348.518 206.785 348.823 207.371 348.998C207.681 349.09 207.815 349.125 207.914 349.173C207.966 349.198 207.988 349.214 208.028 349.284C208.087 349.389 208.153 349.566 208.266 349.922C208.372 350.259 208.516 350.741 208.725 351.38C209.145 352.671 209.838 354.644 211.112 357.704L212.036 357.32C210.771 354.283 210.087 352.335 209.675 351.071C209.468 350.433 209.333 349.979 209.219 349.621C209.112 349.281 209.017 349.003 208.899 348.793C208.76 348.547 208.586 348.386 208.347 348.271C208.154 348.179 207.903 348.112 207.656 348.039C207.126 347.882 206.256 347.6 204.735 346.792L204.265 347.674ZM211.154 357.783C214.05 362.286 226.602 379.804 234.7 391.509L235.522 390.94C227.398 379.196 214.88 361.729 211.995 357.242L211.154 357.783ZM234.623 391.333C235.339 394.578 235.588 398.745 236.124 402.872C236.652 406.938 237.459 410.957 239.339 413.671C240.29 415.043 241.524 416.096 243.139 416.646C244.749 417.194 246.69 417.225 249.029 416.641C253.688 415.479 260.045 411.85 268.816 404.701L268.184 403.926C259.437 411.055 253.222 414.565 248.787 415.671C246.579 416.222 244.842 416.169 243.461 415.699C242.085 415.231 241.013 414.332 240.161 413.101C238.435 410.61 237.645 406.82 237.116 402.743C236.594 398.727 236.327 394.416 235.599 391.117L234.623 391.333ZM268.883 404.635C272.449 400.4 276.878 390.98 280.024 380.638C283.17 370.294 285.076 358.89 283.491 350.675L282.509 350.864C284.046 358.832 282.202 370.042 279.067 380.347C275.933 390.652 271.551 399.914 268.118 403.991L268.883 404.635ZM282.588 351.052C286.883 357.326 292.474 365.966 298.661 375.492C304.845 385.015 311.622 395.419 318.284 405.211C324.945 415.002 331.497 424.189 337.233 431.276C340.1 434.819 342.77 437.846 345.152 440.163C347.523 442.469 349.65 444.113 351.431 444.839L351.808 443.912C350.215 443.263 348.203 441.735 345.849 439.446C343.507 437.168 340.865 434.175 338.01 430.647C332.301 423.593 325.767 414.432 319.111 404.649C312.456 394.867 305.684 384.471 299.499 374.947C293.316 365.427 287.717 356.773 283.413 350.487L282.588 351.052ZM351.431 444.839C353.635 445.737 356.169 446.854 358.896 448.046C361.619 449.236 364.529 450.497 367.474 451.676C373.353 454.03 379.416 456.075 384.441 456.563C386.956 456.808 389.252 456.666 391.15 455.947C393.065 455.221 394.557 453.911 395.438 451.872C396.311 449.853 396.568 447.158 396.115 443.676C395.661 440.19 394.49 435.878 392.467 430.594L391.533 430.951C393.54 436.193 394.683 440.425 395.123 443.805C395.564 447.19 395.295 449.683 394.52 451.475C393.753 453.249 392.475 454.375 390.795 455.012C389.097 455.656 386.973 455.804 384.538 455.568C379.665 455.095 373.716 453.098 367.846 450.748C364.917 449.575 362.019 448.319 359.296 447.129C356.576 445.941 354.027 444.817 351.808 443.912L351.431 444.839ZM392.482 430.639C391.881 428.474 391.208 423.553 390.632 417.308C390.057 411.08 389.582 403.58 389.367 396.288C389.152 388.992 389.199 381.919 389.665 376.538C389.898 373.845 390.234 371.598 390.688 369.966C390.915 369.149 391.165 368.508 391.433 368.049C391.706 367.581 391.963 367.358 392.176 367.278L391.824 366.342C391.3 366.539 390.893 366.989 390.569 367.545C390.241 368.108 389.963 368.84 389.724 369.699C389.247 371.418 388.904 373.737 388.668 376.452C388.198 381.889 388.152 389.007 388.367 396.317C388.583 403.63 389.059 411.151 389.636 417.4C390.211 423.631 390.89 428.642 391.518 430.906L392.482 430.639ZM391.745 367.24C399.584 371.887 405.491 374.198 410.072 376.135C414.659 378.076 417.851 379.62 420.416 382.715L421.186 382.077C418.45 378.776 415.046 377.154 410.461 375.214C405.869 373.271 400.026 370.987 392.255 366.38L391.745 367.24ZM420.301 382.396C420.301 383.187 420.579 384.276 421.022 385.559C421.47 386.857 422.107 388.412 422.865 390.159C423.624 391.908 424.508 393.858 425.454 395.949C426.4 398.041 427.408 400.275 428.415 402.595C432.456 411.903 436.447 422.505 436.447 430.772H437.447C437.447 422.268 433.364 411.483 429.332 402.197C428.322 399.869 427.311 397.629 426.365 395.537C425.418 393.443 424.537 391.501 423.782 389.761C423.027 388.021 422.402 386.494 421.967 385.233C421.527 383.955 421.301 383.005 421.301 382.396H420.301ZM436.607 430.406C434.194 432.648 432.101 436.874 430.981 441.447C429.86 446.025 429.683 451.073 431.227 454.98C432.003 456.942 433.217 458.628 434.974 459.805C436.73 460.983 438.992 461.628 441.818 461.571C447.447 461.457 455.376 458.559 466.274 451.418L465.726 450.582C454.874 457.691 447.14 460.463 441.798 460.571C439.139 460.625 437.088 460.019 435.531 458.975C433.973 457.93 432.873 456.423 432.157 454.612C430.719 450.974 430.857 446.158 431.952 441.685C433.049 437.207 435.075 433.194 437.287 431.139L436.607 430.406ZM466.167 451.471C477.27 447.529 492.889 435.788 504.645 419.683C516.407 403.57 524.364 383.003 519.99 361.401L519.01 361.599C523.309 382.832 515.501 403.115 503.837 419.093C492.168 435.08 476.7 446.67 465.833 450.529L466.167 451.471ZM519.99 361.401C518.902 356.028 517.991 351.532 517.237 347.811L516.257 348.01C517.011 351.731 517.922 356.226 519.01 361.599L519.99 361.401ZM517.237 347.811C516.996 346.623 516.771 345.514 516.561 344.481L515.581 344.68C515.791 345.713 516.016 346.822 516.257 348.01L517.237 347.811ZM516.561 344.481C515.572 339.606 514.924 336.416 514.548 334.561C514.36 333.634 514.241 333.041 514.18 332.738C514.147 332.571 514.137 332.518 514.139 332.528C514.139 332.531 514.14 332.541 514.141 332.546C514.141 332.556 514.143 332.588 514.142 332.609C514.135 332.68 513.853 333.045 513.457 333.055C513.314 332.968 513.193 332.81 513.179 332.779C513.175 332.766 513.168 332.747 513.166 332.74C513.164 332.736 513.162 332.729 513.161 332.726C513.16 332.721 513.159 332.717 513.159 332.717C513.159 332.715 513.16 332.719 513.163 332.733C513.168 332.757 513.177 332.798 513.189 332.857C513.389 333.791 514.401 338.662 515.681 344.7L516.659 344.493C515.381 338.465 514.366 333.579 514.167 332.648C514.155 332.589 514.145 332.544 514.139 332.515C514.136 332.502 514.132 332.487 514.129 332.475C514.129 332.472 514.127 332.466 514.125 332.46C514.124 332.456 514.122 332.448 514.121 332.444C514.118 332.437 514.111 332.416 514.106 332.404C514.093 332.373 513.971 332.214 513.829 332.127C513.433 332.137 513.151 332.502 513.143 332.574C513.143 332.595 513.144 332.627 513.145 332.637C513.145 332.643 513.147 332.653 513.147 332.657C513.151 332.691 513.173 332.797 513.2 332.934C513.26 333.238 513.38 333.833 513.568 334.76C513.944 336.615 514.592 339.806 515.581 344.68L516.561 344.481ZM515.681 344.7C515.947 345.96 516.226 347.27 516.511 348.604L517.489 348.396C517.204 347.061 516.926 345.752 516.659 344.493L515.681 344.7ZM517.459 348.301C517.37 348.096 517.286 347.901 517.207 347.715L516.286 348.106C516.367 348.295 516.452 348.492 516.541 348.699L517.459 348.301ZM517.207 347.715C516.658 346.423 516.362 345.622 516.268 345.161C516.216 344.908 516.251 344.873 516.229 344.923C516.206 344.972 516.158 345.028 516.087 345.059C516.031 345.084 515.998 345.076 516.022 345.078L516.12 344.083C515.997 344.071 515.84 344.075 515.684 344.144C515.514 344.219 515.391 344.349 515.319 344.508C515.197 344.775 515.233 345.095 515.288 345.361C515.406 345.938 515.744 346.831 516.286 348.106L517.207 347.715ZM516.022 345.078C516.03 345.079 516.043 345.081 516.062 345.085L516.277 344.108C516.227 344.097 516.174 344.088 516.121 344.083L516.022 345.078ZM516.062 345.085C516.156 345.106 516.306 345.162 516.529 345.268C516.745 345.372 517.002 345.51 517.305 345.676C517.906 346.005 518.669 346.437 519.561 346.877C521.349 347.76 523.684 348.694 526.445 348.997L526.555 348.003C523.953 347.717 521.735 346.835 520.004 345.98C519.136 345.552 518.399 345.135 517.786 344.799C517.482 344.633 517.204 344.483 516.961 344.367C516.724 344.253 516.489 344.155 516.277 344.108L516.062 345.085ZM526.136 348.843C534.25 357.436 537.077 370.034 536.134 381.385C535.664 387.055 534.254 392.388 532.113 396.725C529.97 401.068 527.115 404.373 523.775 406.053L524.225 406.947C527.823 405.136 530.809 401.628 533.01 397.168C535.214 392.702 536.651 387.244 537.131 381.468C538.089 369.927 535.228 357.015 526.864 348.157L526.136 348.843ZM523.601 406.199C520.514 410.285 518.465 414.161 518.004 417.424C517.771 419.066 517.937 420.578 518.601 421.883C519.268 423.191 520.41 424.24 522.041 424.995C525.275 426.492 530.493 426.865 538.067 425.823C545.662 424.778 555.704 422.3 568.641 418.012L568.326 417.062C555.419 421.341 545.442 423.799 537.931 424.832C530.4 425.868 525.424 425.459 522.461 424.088C520.995 423.409 520.039 422.502 519.493 421.429C518.944 420.352 518.782 419.058 518.994 417.564C519.419 414.556 521.343 410.846 524.399 406.801L523.601 406.199ZM568.771 417.946C574.402 413.988 582.443 407.289 589.518 400.226C593.057 396.694 596.361 393.064 599.003 389.633C601.64 386.211 603.644 382.955 604.548 380.173L603.597 379.864C602.746 382.482 600.825 385.629 598.211 389.023C595.603 392.408 592.331 396.006 588.812 399.518C581.773 406.546 573.775 413.207 568.196 417.128L568.771 417.946ZM604.548 380.173C605.36 377.678 605.324 375.43 603.87 373.834L603.13 374.507C604.224 375.708 604.365 377.502 603.597 379.864L604.548 380.173ZM603.002 374.215C603.158 375.959 603.347 377.936 603.576 380.072L604.57 379.966C604.342 377.837 604.154 375.865 603.998 374.126L603.002 374.215ZM603.576 380.072C604.518 388.884 606.142 400.433 608.972 409.469C610.386 413.982 612.115 417.917 614.244 420.571C616.382 423.237 618.992 424.681 622.109 423.988L621.891 423.012C619.283 423.592 617.025 422.44 615.024 419.945C613.012 417.437 611.328 413.645 609.927 409.171C607.127 400.234 605.512 388.768 604.57 379.966L603.576 380.072ZM622.109 423.988C622.574 423.885 622.992 423.61 623.365 423.244C623.739 422.878 624.092 422.396 624.427 421.833C625.098 420.708 625.737 419.193 626.352 417.445C627.583 413.947 628.748 409.42 629.874 404.995C631.004 400.554 632.093 396.221 633.177 393.065C633.72 391.483 634.25 390.233 634.765 389.422C635.024 389.015 635.258 388.752 635.46 388.607C635.65 388.47 635.778 388.46 635.878 388.485L636.122 387.515C635.664 387.4 635.238 387.535 634.877 387.795C634.526 388.046 634.211 388.43 633.921 388.886C633.34 389.801 632.78 391.142 632.231 392.74C631.131 395.944 630.03 400.326 628.905 404.748C627.776 409.185 626.622 413.666 625.409 417.114C624.802 418.839 624.188 420.281 623.568 421.321C623.258 421.841 622.956 422.245 622.665 422.53C622.372 422.817 622.114 422.962 621.891 423.012L622.109 423.988ZM636.229 388.444C639.888 386.554 642.781 385.68 644.954 385.165C646.055 384.904 646.946 384.74 647.714 384.572C648.452 384.411 649.094 384.244 649.568 383.972L649.069 383.105C648.748 383.29 648.253 383.431 647.501 383.595C646.779 383.753 645.828 383.93 644.723 384.192C642.486 384.722 639.515 385.621 635.771 387.556L636.229 388.444ZM649.568 383.972C649.842 383.814 650.079 383.611 650.249 383.338C650.419 383.064 650.502 382.753 650.519 382.411C650.552 381.754 650.345 380.915 649.973 379.837L649.027 380.163C649.398 381.238 649.543 381.914 649.52 382.361C649.51 382.571 649.463 382.709 649.4 382.81C649.337 382.911 649.237 383.008 649.069 383.105L649.568 383.972ZM649 379.978C648.95 381.15 648.889 382.328 648.82 383.509L649.818 383.568C649.888 382.382 649.949 381.198 650 380.022L649 379.978ZM648.82 383.509C648.257 393.029 647.103 402.744 645.878 410.708C644.651 418.687 643.358 424.868 642.526 427.341L643.474 427.659C644.337 425.095 645.64 418.834 646.867 410.86C648.095 402.872 649.253 393.125 649.818 383.568L648.82 383.509ZM642.56 427.263C641.432 429.361 641.26 432.795 641.899 436.23C642.541 439.683 644.026 443.272 646.362 445.695C648.723 448.145 651.956 449.394 655.96 448.092C659.91 446.808 664.547 443.06 669.856 435.726L669.046 435.139C663.78 442.414 659.299 445.955 655.651 447.141C652.058 448.31 649.214 447.212 647.082 445.001C644.925 442.764 643.501 439.379 642.882 436.048C642.259 432.699 642.472 429.539 643.44 427.737L642.56 427.263ZM669.904 435.644C671.668 431.873 674.245 428.873 677.128 426.069C678.57 424.666 680.082 423.319 681.605 421.946C683.126 420.575 684.657 419.181 686.121 417.697C689.052 414.726 691.731 411.382 693.577 407.087C695.425 402.79 696.426 397.572 696.044 390.866L695.046 390.923C695.42 397.494 694.437 402.555 692.659 406.692C690.879 410.832 688.29 414.075 685.409 416.995C683.968 418.456 682.456 419.833 680.936 421.203C679.419 422.57 677.89 423.933 676.431 425.353C673.509 428.194 670.835 431.293 668.998 435.221L669.904 435.644ZM696.044 390.866C695.907 388.459 695.592 385.86 695.074 383.044L694.091 383.225C694.602 386.005 694.912 388.562 695.046 390.923L696.044 390.866ZM694.085 383.188C694.373 385.846 694.696 388.458 695.05 390.965L696.04 390.825C695.688 388.33 695.366 385.729 695.08 383.081L694.085 383.188ZM695.05 390.965C695.809 396.333 696.713 401.229 697.729 405.065C698.237 406.983 698.775 408.646 699.341 409.976C699.902 411.293 700.51 412.334 701.183 412.957C701.524 413.273 701.906 413.503 702.329 413.586C702.762 413.671 703.19 413.591 703.593 413.366C704.364 412.938 705.056 411.979 705.709 410.574C707.029 407.732 708.361 402.67 709.682 394.852L708.696 394.686C707.377 402.496 706.061 407.442 704.802 410.153C704.165 411.524 703.584 412.227 703.107 412.492C702.887 412.615 702.698 412.639 702.521 412.605C702.334 412.568 702.114 412.456 701.862 412.223C701.349 411.747 700.807 410.867 700.261 409.584C699.721 408.315 699.197 406.701 698.696 404.809C697.694 401.026 696.796 396.173 696.04 390.825L695.05 390.965ZM709.688 394.807C710.845 379.72 711.897 351.775 711.965 327.284C711.999 315.039 711.787 303.647 711.219 295.153C710.935 290.908 710.561 287.372 710.081 284.81C709.841 283.531 709.571 282.475 709.264 281.689C709.111 281.295 708.942 280.954 708.753 280.681C708.566 280.412 708.337 280.176 708.051 280.045L707.635 280.955C707.696 280.982 707.799 281.06 707.931 281.25C708.06 281.437 708.195 281.701 708.332 282.052C708.606 282.754 708.863 283.741 709.098 284.995C709.567 287.498 709.938 290.988 710.221 295.22C710.787 303.679 710.999 315.044 710.965 327.281C710.897 351.755 709.846 379.674 708.691 394.731L709.688 394.807ZM707.937 280.991C710.213 280.555 712.814 279.772 715.191 278.602C717.564 277.435 719.751 275.865 721.155 273.833C722.571 271.784 723.172 269.286 722.392 266.343C721.618 263.423 719.497 260.103 715.56 256.341L714.869 257.064C718.737 260.76 720.717 263.927 721.425 266.599C722.127 269.247 721.59 271.445 720.332 273.265C719.061 275.104 717.039 276.579 714.75 277.705C712.466 278.828 709.954 279.586 707.749 280.009L707.937 280.991ZM715.676 256.51C706.422 234.424 690.972 199.783 676.315 171.374C668.988 157.172 661.851 144.51 655.778 135.75C652.745 131.374 649.959 127.945 647.533 125.786C646.321 124.707 645.174 123.922 644.108 123.503C643.035 123.082 642.005 123.018 641.084 123.451L641.51 124.356C642.107 124.075 642.838 124.079 643.742 124.434C644.653 124.792 645.699 125.492 646.868 126.533C649.205 128.612 651.936 131.963 654.956 136.319C660.991 145.025 668.105 157.64 675.427 171.832C690.068 200.21 705.506 234.825 714.754 256.896L715.676 256.51ZM641.691 123.595C632.128 111.403 614.991 93.1261 594.635 77.8923C574.293 62.6688 550.66 50.4259 528.121 50.4259V51.4259C550.331 51.4259 573.747 63.509 594.036 78.6929C614.311 93.8666 631.387 112.079 640.904 124.212L641.691 123.595ZM528.222 50.4362C511.51 46.9954 487.41 43.2014 466.036 40.7494C455.349 39.5234 445.336 38.632 437.264 38.2886C433.229 38.1169 429.672 38.0819 426.756 38.2115C423.851 38.3407 421.541 38.6344 420.021 39.1394L420.337 40.0883C421.717 39.6295 423.911 39.339 426.8 39.2106C429.677 39.0827 433.202 39.1167 437.222 39.2877C445.26 39.6297 455.247 40.5183 465.922 41.7429C487.271 44.1921 511.342 47.9818 528.02 51.4157L528.222 50.4362ZM420.021 39.1394C416.482 40.3159 414.138 40.5208 412.083 40.268C409.992 40.0106 408.197 39.2871 405.644 38.5211L405.356 39.4789C407.803 40.2129 409.758 40.9894 411.961 41.2605C414.201 41.5361 416.697 41.298 420.337 40.0883L420.021 39.1394Z" fill="#1D1D1D" fill-opacity="0.2"/>
<g filter="url(#filter1_d_2_9)">
<path d="M140.5 188.5C131 209.5 122.617 221.5 108.733 227.5C76.1169 232.5 47.133 237.2 100.733 262C111.566 267.167 142.633 271.2 180.233 246" stroke="#1D1D1D" stroke-opacity="0.6" stroke-width="5" shape-rendering="crispEdges"/>
</g>
<g filter="url(#filter2_d_2_9)">
<path d="M569 102.5C595 108.5 600.616 155.5 614.5 161.5C647.116 166.5 676.1 171.2 622.5 196C611.667 201.167 580.6 205.2 543 180" stroke="#1D1D1D" stroke-opacity="0.6" stroke-width="5" shape-rendering="crispEdges"/>
</g>
<g filter="url(#filter3_d_2_9)">
<path d="M464.5 236C467 246 481.116 255 495 261C527.616 266 556.6 270.7 503 295.5C492.167 300.667 442.6 292.7 405 267.5" stroke="#1D1D1D" stroke-opacity="0.6" stroke-width="5" shape-rendering="crispEdges"/>
</g>
<g filter="url(#filter4_d_2_9)">
<path d="M254.111 69.154C248.759 73.4902 237.606 72.6264 227.781 70.2539C208.355 59.8232 190.988 50.6912 209.651 85.4648C213.361 92.5754 243.032 108.23 273.233 109.875" stroke="#1D1D1D" stroke-opacity="0.6" stroke-width="5" shape-rendering="crispEdges"/>
</g>
<g filter="url(#filter5_d_2_9)">
<path d="M461.688 124.364C462.617 131.189 471.335 138.2 480.117 143.201C501.415 148.909 520.323 154.152 482.906 166.702C475.333 169.341 442.993 160.422 419.863 140.932" stroke="#1D1D1D" stroke-opacity="0.6" stroke-width="5" shape-rendering="crispEdges"/>
</g>
<g filter="url(#filter6_d_2_9)">
<path d="M262.321 273.354C261.392 280.179 252.675 287.19 243.892 292.191C222.594 297.899 203.687 303.142 241.103 315.692C248.677 318.331 281.017 309.412 304.147 289.923" stroke="#1D1D1D" stroke-opacity="0.6" stroke-width="5" shape-rendering="crispEdges"/>
</g>
<defs>
<filter id="filter0_ii_2_9" x="-3.30688" y="0.5" width="734.043" height="461.075" filterUnits="userSpaceOnUse" color-interpolation-filters="sRGB">
<feFlood flood-opacity="0" result="BackgroundImageFix"/>
<feBlend mode="normal" in="SourceGraphic" in2="BackgroundImageFix" result="shape"/>
<feColorMatrix in="SourceAlpha" type="matrix" values="0 0 0 0 0 0 0 0 0 0 0 0 0 0 0 0 0 0 127 0" result="hardAlpha"/>
<feOffset dx="8"/>
<feGaussianBlur stdDeviation="4"/>
<feComposite in2="hardAlpha" operator="arithmetic" k2="-1" k3="1"/>
<feColorMatrix type="matrix" values="0 0 0 0 0.847059 0 0 0 0 0.847059 0 0 0 0 0.847059 0 0 0 0.5 0"/>
<feBlend mode="normal" in2="shape" result="effect1_innerShadow_2_9"/>
<feColorMatrix in="SourceAlpha" type="matrix" values="0 0 0 0 0 0 0 0 0 0 0 0 0 0 0 0 0 0 127 0" result="hardAlpha"/>
<feOffset dx="-4"/>
<feGaussianBlur stdDeviation="4"/>
<feComposite in2="hardAlpha" operator="arithmetic" k2="-1" k3="1"/>
<feColorMatrix type="matrix" values="0 0 0 0 0.847059 0 0 0 0 0.847059 0 0 0 0 0.847059 0 0 0 0.3 0"/>
<feBlend mode="normal" in2="effect1_innerShadow_2_9" result="effect2_innerShadow_2_9"/>
</filter>
<filter id="filter1_d_2_9" x="68.499" y="183.47" width="121.126" height="88.8923" filterUnits="userSpaceOnUse" color-interpolation-filters="sRGB">
<feFlood flood-opacity="0" result="BackgroundImageFix"/>
<feColorMatrix in="SourceAlpha" type="matrix" values="0 0 0 0 0 0 0 0 0 0 0 0 0 0 0 0 0 0 127 0" result="hardAlpha"/>
<feOffset dx="4"/>
<feGaussianBlur stdDeviation="2"/>
<feComposite in2="hardAlpha" operator="out"/>
<feColorMatrix type="matrix" values="0 0 0 0 0.176471 0 0 0 0 0.176471 0 0 0 0 0.176471 0 0 0 0.4 0"/>
<feBlend mode="normal" in2="BackgroundImageFix" result="effect1_dropShadow_2_9"/>
<feBlend mode="normal" in="SourceGraphic" in2="effect1_dropShadow_2_9" result="shape"/>
</filter>
<filter id="filter2_d_2_9" x="541.608" y="96.064" width="121.126" height="110.298" filterUnits="userSpaceOnUse" color-interpolation-filters="sRGB">
<feFlood flood-opacity="0" result="BackgroundImageFix"/>
<feColorMatrix in="SourceAlpha" type="matrix" values="0 0 0 0 0 0 0 0 0 0 0 0 0 0 0 0 0 0 127 0" result="hardAlpha"/>
<feOffset dx="4"/>
<feGaussianBlur stdDeviation="2"/>
<feComposite in2="hardAlpha" operator="out"/>
<feColorMatrix type="matrix" values="0 0 0 0 0.176471 0 0 0 0 0.176471 0 0 0 0 0.176471 0 0 0 0.4 0"/>
<feBlend mode="normal" in2="BackgroundImageFix" result="effect1_dropShadow_2_9"/>
<feBlend mode="normal" in="SourceGraphic" in2="effect1_dropShadow_2_9" result="shape"/>
</filter>
<filter id="filter3_d_2_9" x="403.608" y="231.394" width="139.626" height="72.101" filterUnits="userSpaceOnUse" color-interpolation-filters="sRGB">
<feFlood flood-opacity="0" result="BackgroundImageFix"/>
<feColorMatrix in="SourceAlpha" type="matrix" values="0 0 0 0 0 0 0 0 0 0 0 0 0 0 0 0 0 0 127 0" result="hardAlpha"/>
<feOffset dx="4"/>
<feGaussianBlur stdDeviation="2"/>
<feComposite in2="hardAlpha" operator="out"/>
<feColorMatrix type="matrix" values="0 0 0 0 0.176471 0 0 0 0 0.176471 0 0 0 0 0.176471 0 0 0 0.4 0"/>
<feBlend mode="normal" in2="BackgroundImageFix" result="effect1_dropShadow_2_9"/>
<feBlend mode="normal" in="SourceGraphic" in2="effect1_dropShadow_2_9" result="shape"/>
</filter>
<filter id="filter4_d_2_9" x="199.165" y="54.3296" width="82.2043" height="62.0422" filterUnits="userSpaceOnUse" color-interpolation-filters="sRGB">
<feFlood flood-opacity="0" result="BackgroundImageFix"/>
<feColorMatrix in="SourceAlpha" type="matrix" values="0 0 0 0 0 0 0 0 0 0 0 0 0 0 0 0 0 0 127 0" result="hardAlpha"/>
<feOffset dx="4"/>
<feGaussianBlur stdDeviation="2"/>
<feComposite in2="hardAlpha" operator="out"/>
<feColorMatrix type="matrix" values="0 0 0 0 0.176471 0 0 0 0 0.176471 0 0 0 0 0.176471 0 0 0 0.4 0"/>
<feBlend mode="normal" in2="BackgroundImageFix" result="effect1_dropShadow_2_9"/>
<feBlend mode="normal" in="SourceGraphic" in2="effect1_dropShadow_2_9" result="shape"/>
</filter>
<filter id="filter5_d_2_9" x="418.252" y="120.027" width="96.493" height="53.6284" filterUnits="userSpaceOnUse" color-interpolation-filters="sRGB">
<feFlood flood-opacity="0" result="BackgroundImageFix"/>
<feColorMatrix in="SourceAlpha" type="matrix" values="0 0 0 0 0 0 0 0 0 0 0 0 0 0 0 0 0 0 127 0" result="hardAlpha"/>
<feOffset dx="4"/>
<feGaussianBlur stdDeviation="2"/>
<feComposite in2="hardAlpha" operator="out"/>
<feColorMatrix type="matrix" values="0 0 0 0 0.176471 0 0 0 0 0.176471 0 0 0 0 0.176471 0 0 0 0.4 0"/>
<feBlend mode="normal" in2="BackgroundImageFix" result="effect1_dropShadow_2_9"/>
<feBlend mode="normal" in="SourceGraphic" in2="effect1_dropShadow_2_9" result="shape"/>
</filter>
<filter id="filter6_d_2_9" x="217.265" y="269.017" width="96.493" height="53.6284" filterUnits="userSpaceOnUse" color-interpolation-filters="sRGB">
<feFlood flood-opacity="0" result="BackgroundImageFix"/>
<feColorMatrix in="SourceAlpha" type="matrix" values="0 0 0 0 0 0 0 0 0 0 0 0 0 0 0 0 0 0 127 0" result="hardAlpha"/>
<feOffset dx="4"/>
<feGaussianBlur stdDeviation="2"/>
<feComposite in2="hardAlpha" operator="out"/>
<feColorMatrix type="matrix" values="0 0 0 0 0.176471 0 0 0 0 0.176471 0 0 0 0 0.176471 0 0 0 0.4 0"/>
<feBlend mode="normal" in2="BackgroundImageFix" result="effect1_dropShadow_2_9"/>
<feBlend mode="normal" in="SourceGraphic" in2="effect1_dropShadow_2_9" result="shape"/>
</filter>
</defs>
</svg>
